<svg viewBox="0 0 900 460" xmlns="http://www.w3.org/2000/svg" style="width:100%;height:auto;background:#161b22;border:1px solid #30363d;border-radius:8px;">
  <text x="60" y="16" fill="#c9d1d9" font-size="13" font-family="monospace">Equity Curve — 2-Year Backtest (2024-09 → 2026-08)</text>
  <polyline points="60.0,313.5 61.1,313.5 62.2,313.5 63.3,313.5 64.3,313.5 65.4,313.5 66.5,313.5 67.6,313.5 68.7,313.5 69.8,313.5 70.9,313.5 71.9,313.5 73.0,313.5 74.1,313.5 75.2,313.7 76.3,314.0 77.4,323.0 78.5,323.0 79.5,325.4 80.6,311.5 81.7,310.0 82.8,311.4 83.9,312.8 85.0,309.1 86.1,308.2 87.2,308.3 88.2,308.8 89.3,302.1 90.4,299.3 91.5,300.3 92.6,305.8 93.7,306.8 94.8,306.8 95.8,306.8 96.9,306.8 98.0,306.8 99.1,306.8 100.2,306.8 101.3,307.6 102.4,312.2 103.4,313.4 104.5,313.4 105.6,313.4 106.7,313.4 107.8,314.3 108.9,308.7 110.0,304.9 111.0,298.2 112.1,297.8 113.2,295.6 114.3,294.3 115.4,295.0 116.5,292.2 117.6,297.9 118.6,300.3 119.7,300.3 120.8,300.3 121.9,302.7 123.0,302.7 124.1,302.7 125.2,302.7 126.3,302.7 127.3,303.7 128.4,308.1 129.5,311.1 130.6,315.1 131.7,315.1 132.8,315.1 133.9,315.1 134.9,315.1 136.0,314.3 137.1,310.6 138.2,309.0 139.3,301.1 140.4,294.2 141.5,269.3 142.5,274.4 143.6,264.4 144.7,269.4 145.8,260.2 146.9,261.2 148.0,264.7 149.1,260.4 150.1,256.7 151.2,250.2 152.3,237.9 153.4,234.6 154.5,238.0 155.6,242.7 156.7,243.2 157.7,247.8 158.8,247.8 159.9,247.8 161.0,247.8 162.1,249.9 163.2,248.0 164.3,252.0 165.4,257.5 166.4,257.5 167.5,257.5 168.6,269.1 169.7,265.1 170.8,262.7 171.9,264.5 173.0,272.7 174.0,272.7 175.1,272.7 176.2,274.8 177.3,269.2 178.4,270.3 179.5,265.1 180.6,253.6 181.6,253.8 182.7,261.7 183.8,272.8 184.9,272.8 186.0,272.8 187.1,272.8 188.2,272.8 189.2,272.8 190.3,272.8 191.4,274.8 192.5,275.4 193.6,275.4 194.7,275.4 195.8,275.4 196.8,275.4 197.9,275.4 199.0,275.4 200.1,275.4 201.2,270.6 202.3,270.7 203.4,271.0 204.5,260.4 205.5,275.5 206.6,277.7 207.7,277.7 208.8,277.7 209.9,277.7 211.0,277.7 212.1,277.7 213.1,277.7 214.2,277.5 215.3,270.6 216.4,262.2 217.5,260.5 218.6,252.6 219.7,260.6 220.7,261.1 221.8,251.9 222.9,260.4 224.0,262.2 225.1,264.2 226.2,262.7 227.3,263.5 228.3,263.5 229.4,263.5 230.5,263.5 231.6,263.5 232.7,264.3 233.8,269.8 234.9,269.8 235.9,269.8 237.0,269.8 238.1,269.8 239.2,269.8 240.3,269.8 241.4,269.8 242.5,269.8 243.5,269.8 244.6,269.8 245.7,269.8 246.8,269.8 247.9,269.8 249.0,269.8 250.1,269.8 251.2,269.8 252.2,269.8 253.3,269.8 254.4,269.8 255.5,269.8 256.6,269.8 257.7,269.8 258.8,269.8 259.8,269.8 260.9,269.8 262.0,269.8 263.1,269.8 264.2,269.8 265.3,269.8 266.4,269.8 267.4,269.8 268.5,269.8 269.6,269.8 270.7,269.8 271.8,269.8 272.9,269.8 274.0,269.8 275.0,269.8 276.1,269.8 277.2,269.8 278.3,269.8 279.4,269.8 280.5,269.8 281.6,269.8 282.6,269.8 283.7,269.8 284.8,269.8 285.9,269.8 287.0,269.8 288.1,269.8 289.2,269.8 290.3,269.8 291.3,269.8 292.4,271.3 293.5,267.9 294.6,272.7 295.7,272.7 296.8,272.7 297.9,272.7 298.9,272.7 300.0,272.7 301.1,272.7 302.2,272.7 303.3,272.7 304.4,272.7 305.5,272.7 306.5,272.7 307.6,272.7 308.7,272.7 309.8,272.7 310.9,272.7 312.0,272.7 313.1,272.7 314.1,275.3 315.2,273.3 316.3,269.0 317.4,273.8 318.5,273.8 319.6,273.8 320.7,273.8 321.7,274.3 322.8,267.9 323.9,265.0 325.0,248.1 326.1,250.2 327.2,249.6 328.3,242.4 329.4,243.2 330.4,246.9 331.5,243.3 332.6,244.0 333.7,247.5 334.8,241.1 335.9,239.0 337.0,242.2 338.0,245.0 339.1,246.6 340.2,246.6 341.3,246.6 342.4,236.8 343.5,224.7 344.6,222.5 345.6,219.8 346.7,218.6 347.8,224.9 348.9,221.8 350.0,226.5 351.1,229.5 352.2,229.5 353.2,229.5 354.3,225.9 355.4,231.0 356.5,231.0 357.6,224.4 358.7,217.8 359.8,225.9 360.8,223.6 361.9,228.3 363.0,223.4 364.1,219.3 365.2,227.2 366.3,227.2 367.4,227.2 368.5,227.2 369.5,227.2 370.6,227.2 371.7,227.2 372.8,227.2 373.9,227.2 375.0,227.2 376.1,227.2 377.1,227.2 378.2,226.4 379.3,214.6 380.4,214.0 381.5,217.0 382.6,226.4 383.7,226.4 384.7,226.4 385.8,226.4 386.9,226.4 388.0,228.5 389.1,228.5 390.2,228.5 391.3,228.5 392.3,228.5 393.4,228.5 394.5,228.5 395.6,228.5 396.7,228.5 397.8,228.5 398.9,230.0 399.9,228.3 401.0,229.3 402.1,227.3 403.2,231.4 404.3,237.0 405.4,237.0 406.5,235.0 407.5,241.4 408.6,241.2 409.7,238.4 410.8,243.8 411.9,246.2 413.0,236.8 414.1,232.4 415.2,220.3 416.2,221.3 417.3,216.9 418.4,209.7 419.5,218.7 420.6,217.3 421.7,218.7 422.8,215.5 423.8,219.7 424.9,219.7 426.0,219.7 427.1,219.7 428.2,219.7 429.3,219.7 430.4,219.7 431.4,219.7 432.5,219.7 433.6,219.7 434.7,225.5 435.8,225.5 436.9,225.5 438.0,225.5 439.0,225.5 440.1,225.5 441.2,225.5 442.3,225.5 443.4,225.5 444.5,225.5 445.6,225.5 446.6,225.2 447.7,224.1 448.8,221.1 449.9,211.4 451.0,218.0 452.1,216.9 453.2,211.5 454.3,223.6 455.3,223.6 456.4,223.6 457.5,223.6 458.6,223.6 459.7,223.6 460.8,223.6 461.9,223.6 462.9,223.6 464.0,227.3 465.1,227.3 466.2,227.3 467.3,227.3 468.4,227.3 469.5,227.3 470.5,227.3 471.6,227.3 472.7,227.3 473.8,227.3 474.9,227.3 476.0,227.3 477.1,227.3 478.1,227.3 479.2,227.3 480.3,227.3 481.4,227.3 482.5,227.3 483.6,227.3 484.7,227.3 485.7,221.6 486.8,221.0 487.9,221.5 489.0,220.9 490.1,222.9 491.2,218.8 492.3,223.4 493.4,216.5 494.4,222.1 495.5,224.4 496.6,224.4 497.7,224.4 498.8,224.4 499.9,224.4 501.0,224.4 502.0,224.4 503.1,224.4 504.2,224.4 505.3,224.4 506.4,224.4 507.5,222.7 508.6,209.4 509.6,205.2 510.7,200.1 511.8,199.3 512.9,195.3 514.0,190.7 515.1,199.7 516.2,197.2 517.2,204.8 518.3,204.8 519.4,204.8 520.5,204.8 521.6,204.8 522.7,204.8 523.8,204.8 524.8,204.8 525.9,204.8 527.0,204.8 528.1,204.8 529.2,204.8 530.3,204.8 531.4,204.8 532.5,204.8 533.5,204.8 534.6,204.8 535.7,204.8 536.8,204.8 537.9,207.5 539.0,210.8 540.1,212.8 541.1,212.8 542.2,212.8 543.3,212.8 544.4,212.8 545.5,212.8 546.6,212.8 547.7,212.8 548.7,212.8 549.8,212.8 550.9,212.8 552.0,212.8 553.1,212.8 554.2,212.8 555.3,212.8 556.3,212.8 557.4,212.8 558.5,212.8 559.6,212.8 560.7,212.8 561.8,212.8 562.9,212.8 563.9,212.8 565.0,212.8 566.1,212.8 567.2,212.8 568.3,212.8 569.4,212.8 570.5,212.8 571.5,212.8 572.6,212.8 573.7,212.8 574.8,212.8 575.9,212.8 577.0,212.8 578.1,212.8 579.2,212.8 580.2,212.8 581.3,212.8 582.4,212.8 583.5,212.8 584.6,212.8 585.7,212.8 586.8,212.8 587.8,212.8 588.9,212.8 590.0,212.8 591.1,212.8 592.2,212.8 593.3,212.8 594.4,212.8 595.4,212.8 596.5,212.8 597.6,212.8 598.7,212.8 599.8,212.8 600.9,212.8 602.0,212.8 603.0,212.8 604.1,212.8 605.2,212.8 606.3,212.8 607.4,212.8 608.5,212.8 609.6,212.8 610.6,212.8 611.7,212.8 612.8,212.8 613.9,212.8 615.0,207.4 616.1,202.9 617.2,197.2 618.3,199.2 619.3,208.0 620.4,213.4 621.5,213.4 622.6,213.4 623.7,213.4 624.8,213.4 625.9,213.4 626.9,207.1 628.0,205.8 629.1,210.9 630.2,213.2 631.3,213.7 632.4,219.9 633.5,219.9 634.5,219.9 635.6,219.9 636.7,219.9 637.8,219.9 638.9,219.9 640.0,219.9 641.1,219.9 642.1,219.9 643.2,219.9 644.3,219.9 645.4,219.9 646.5,219.9 647.6,219.9 648.7,219.9 649.7,219.9 650.8,219.9 651.9,219.9 653.0,219.9 654.1,219.9 655.2,219.9 656.3,219.9 657.4,219.9 658.4,219.9 659.5,219.9 660.6,219.9 661.7,219.9 662.8,219.9 663.9,219.9 665.0,219.9 666.0,219.9 667.1,219.9 668.2,219.9 669.3,219.9 670.4,219.9 671.5,219.9 672.6,219.9 673.6,219.9 674.7,219.9 675.8,219.9 676.9,219.9 678.0,219.9 679.1,219.9 680.2,219.9 681.2,219.9 682.3,219.9 683.4,215.3 684.5,228.6 685.6,241.6 686.7,241.6 687.8,241.6 688.8,241.6 689.9,241.6 691.0,241.6 692.1,241.6 693.2,242.6 694.3,241.9 695.4,233.6 696.5,224.8 697.5,225.2 698.6,241.6 699.7,241.6 700.8,241.6 701.9,241.6 703.0,241.6 704.1,241.6 705.1,241.6 706.2,241.6 707.3,241.6 708.4,241.6 709.5,241.6 710.6,241.6 711.7,241.6 712.7,241.6 713.8,241.6 714.9,241.6 716.0,241.6 717.1,241.6 718.2,241.6 719.3,241.6 720.3,241.6 721.4,228.7 722.5,232.7 723.6,227.1 724.7,222.0 725.8,220.5 726.9,232.3 727.9,228.8 729.0,217.3 730.1,221.0 731.2,220.4 732.3,204.8 733.4,210.1 734.5,212.9 735.5,221.8 736.6,215.8 737.7,212.2 738.8,212.0 739.9,213.2 741.0,214.4 742.1,213.2 743.2,207.2 744.2,220.3 745.3,220.3 746.4,220.3 747.5,220.3 748.6,220.3 749.7,217.9 750.8,217.0 751.8,212.0 752.9,205.7 754.0,205.9 755.1,213.2 756.2,211.7 757.3,210.8 758.4,208.0 759.4,207.7 760.5,210.1 761.6,213.4 762.7,213.4 763.8,216.5 764.9,217.8 766.0,217.8 767.0,217.8 768.1,217.8 769.2,217.8 770.3,217.8 771.4,217.8 772.5,217.8 773.6,217.8 774.6,217.8 775.7,217.8 776.8,217.8 777.9,217.8 779.0,217.8 780.1,217.8 781.2,217.8 782.3,217.8 783.3,217.8 784.4,217.8 785.5,217.8 786.6,217.8 787.7,217.8 788.8,217.8 789.9,217.8 790.9,217.8 792.0,217.8 793.1,217.8 794.2,217.8 795.3,217.8 796.4,217.8 797.5,217.8 798.5,217.8 799.6,217.8 800.7,217.8 801.8,217.8 802.9,217.8 804.0,217.8 805.1,217.8 806.1,217.8 807.2,217.8 808.3,217.8 809.4,217.8 810.5,217.8 811.6,217.8 812.7,217.8 813.7,217.8 814.8,217.8 815.9,217.8 817.0,217.8 818.1,217.8 819.2,217.8 820.3,217.8 821.4,217.8 822.4,217.8 823.5,217.8 824.6,217.8 825.7,217.8 826.8,217.8 827.9,216.8 829.0,214.8 830.0,215.6 831.1,218.0 832.2,218.0 833.3,214.9 834.4,217.1 835.5,224.0 836.6,224.0 837.6,224.4 838.7,224.0 839.8,217.9 840.9,219.2 842.0,220.7 843.1,225.0 844.2,229.4 845.2,229.4 846.3,229.4 847.4,232.2 848.5,232.2 849.6,232.2 850.7,232.2 851.8,234.2 852.8,234.2 853.9,234.2 855.0,234.2 856.1,234.2 857.2,230.7 858.3,231.6 859.4,230.6 860.5,229.3 861.5,228.3 862.6,231.9 863.7,233.9 864.8,233.9 865.9,233.9 867.0,233.9 868.1,233.9 869.1,233.9 870.2,233.9 871.3,233.9 872.4,233.2 873.5,208.2 874.6,181.3 875.7,164.0 876.7,166.7 877.8,164.4 878.9,159.2 880.0,158.1" fill="none" stroke="#2ea043" stroke-width="2"/>
  <polyline points="60.0,313.5 61.1,320.3 62.2,312.1 63.3,317.0 64.3,317.4 65.4,325.8 66.5,337.4 67.6,334.1 68.7,335.2 69.8,328.6 70.9,323.0 71.9,327.5 73.0,318.9 74.1,318.0 75.2,309.8 76.3,309.2 77.4,313.8 78.5,314.7 79.5,307.4 80.6,300.7 81.7,292.7 82.8,296.5 83.9,296.3 85.0,292.9 86.1,296.6 87.2,290.8 88.2,294.9 89.3,287.6 90.4,284.1 91.5,284.6 92.6,284.2 93.7,293.2 94.8,298.3 95.8,301.2 96.9,308.3 98.0,302.4 99.1,299.8 100.2,300.2 101.3,296.3 102.4,298.0 103.4,299.8 104.5,305.0 105.6,305.4 106.7,297.3 107.8,297.1 108.9,292.1 110.0,285.0 111.0,278.0 112.1,275.7 113.2,277.2 114.3,273.5 115.4,273.8 116.5,271.4 117.6,275.7 118.6,277.6 119.7,284.0 120.8,277.2 121.9,276.1 123.0,279.4 124.1,276.9 125.2,270.7 126.3,260.3 127.3,256.3 128.4,256.6 129.5,269.1 130.6,267.0 131.7,272.0 132.8,271.0 133.9,273.0 134.9,250.1 136.0,244.2 137.1,240.6 138.2,238.5 139.3,237.8 140.4,221.1 141.5,189.4 142.5,183.7 143.6,178.4 144.7,183.8 145.8,183.4 146.9,178.2 148.0,179.5 149.1,179.0 150.1,175.8 151.2,165.2 152.3,146.7 153.4,144.6 154.5,144.7 155.6,146.4 156.7,146.0 157.7,161.1 158.8,169.6 159.9,156.7 161.0,152.7 162.1,151.9 163.2,154.5 164.3,148.8 165.4,155.3 166.4,155.3 167.5,146.9 168.6,142.1 169.7,130.9 170.8,136.9 171.9,138.2 173.0,147.2 174.0,156.3 175.1,140.3 176.2,134.1 177.3,136.5 178.4,130.9 179.5,128.9 180.6,117.8 181.6,106.0 182.7,119.6 183.8,132.2 184.9,151.7 186.0,147.8 187.1,151.1 188.2,160.4 189.2,162.6 190.3,143.9 191.4,140.6 192.5,155.2 193.6,161.3 194.7,158.8 195.8,165.2 196.8,160.5 197.9,163.2 199.0,163.0 200.1,152.4 201.2,150.2 202.3,146.1 203.4,147.0 204.5,140.8 205.5,131.5 206.6,156.9 207.7,167.6 208.8,161.2 209.9,161.9 211.0,160.9 212.1,161.4 213.1,159.3 214.2,151.4 215.3,137.6 216.4,136.5 217.5,119.9 218.6,119.5 219.7,122.0 220.7,121.2 221.8,107.7 222.9,121.5 224.0,114.0 225.1,113.9 226.2,116.6 227.3,116.9 228.3,135.5 229.4,127.2 230.5,127.1 231.6,114.8 232.7,119.6 233.8,129.1 234.9,138.9 235.9,163.9 237.0,142.4 238.1,146.0 239.2,149.4 240.3,148.5 241.4,152.6 242.5,152.7 243.5,153.0 244.6,148.7 245.7,153.6 246.8,150.2 247.9,156.2 249.0,145.3 250.1,148.9 251.2,150.6 252.2,156.5 253.3,156.1 254.4,153.8 255.5,148.8 256.6,144.1 257.7,152.6 258.8,153.0 259.8,157.2 260.9,183.1 262.0,185.0 263.1,198.1 264.2,222.0 265.3,200.2 266.4,198.4 267.4,167.7 268.5,197.6 269.6,192.4 270.7,180.6 271.8,181.4 272.9,193.4 274.0,195.8 275.0,211.2 276.1,229.4 277.2,216.8 278.3,215.9 279.4,214.1 280.5,207.9 281.6,205.8 282.6,212.2 283.7,208.9 284.8,211.0 285.9,208.9 287.0,198.1 288.1,205.3 289.2,204.7 290.3,205.6 291.3,195.6 292.4,193.6 293.5,189.9 294.6,192.8 295.7,192.7 296.8,204.5 297.9,212.5 298.9,212.4 300.0,212.7 301.1,201.5 302.2,194.9 303.3,215.4 304.4,210.7 305.5,210.6 306.5,213.5 307.6,235.3 308.7,223.7 309.8,235.2 310.9,214.8 312.0,216.7 313.1,207.3 314.1,203.7 315.2,203.7 316.3,200.1 317.4,207.7 318.5,205.1 319.6,202.3 320.7,204.5 321.7,201.3 322.8,202.6 323.9,192.0 325.0,175.7 326.1,165.3 327.2,165.9 328.3,161.3 329.4,161.9 330.4,163.9 331.5,161.8 332.6,159.3 333.7,161.3 334.8,154.0 335.9,151.4 337.0,153.8 338.0,156.2 339.1,160.5 340.2,161.3 341.3,153.1 342.4,142.0 343.5,127.5 344.6,124.1 345.6,120.2 346.7,118.2 347.8,125.7 348.9,119.8 350.0,122.3 351.1,123.5 352.2,120.6 353.2,124.8 354.3,116.6 355.4,114.9 356.5,114.6 357.6,99.6 358.7,90.8 359.8,101.7 360.8,98.3 361.9,107.4 363.0,96.5 364.1,96.8 365.2,100.1 366.3,104.3 367.4,111.7 368.5,122.2 369.5,119.2 370.6,116.3 371.7,110.3 372.8,114.6 373.9,117.7 375.0,130.9 376.1,119.1 377.1,112.7 378.2,110.6 379.3,101.7 380.4,100.7 381.5,97.0 382.6,107.2 383.7,116.7 384.7,116.3 385.8,115.1 386.9,108.4 388.0,112.4 389.1,117.6 390.2,117.2 391.3,113.2 392.3,123.2 393.4,126.5 394.5,132.9 395.6,116.4 396.7,110.1 397.8,105.4 398.9,109.1 399.9,107.7 401.0,106.1 402.1,105.5 403.2,104.9 404.3,113.9 405.4,98.6 406.5,96.5 407.5,105.5 408.6,103.3 409.7,99.6 410.8,101.0 411.9,99.8 413.0,98.5 414.1,89.5 415.2,58.1 416.2,61.6 417.3,61.0 418.4,42.9 419.5,63.4 420.6,61.2 421.7,59.9 422.8,52.1 423.8,60.3 424.9,60.7 426.0,63.9 427.1,63.0 428.2,53.8 429.3,60.9 430.4,56.5 431.4,67.0 432.5,60.4 433.6,56.2 434.7,60.2 435.8,61.7 436.9,62.2 438.0,58.2 439.0,72.2 440.1,79.6 441.2,79.0 442.3,75.0 443.4,78.1 444.5,78.1 445.6,76.4 446.6,66.2 447.7,67.1 448.8,65.2 449.9,53.4 451.0,56.4 452.1,50.9 453.2,39.4 454.3,61.7 455.3,63.5 456.4,61.5 457.5,63.1 458.6,67.3 459.7,78.3 460.8,79.0 461.9,80.6 462.9,84.9 464.0,70.9 465.1,74.9 466.2,90.6 467.3,94.5 468.4,91.1 469.5,82.3 470.5,90.4 471.6,102.2 472.7,99.2 473.8,106.1 474.9,94.1 476.0,89.9 477.1,86.0 478.1,91.8 479.2,91.5 480.3,94.0 481.4,89.2 482.5,85.9 483.6,90.0 484.7,78.9 485.7,75.7 486.8,73.0 487.9,70.1 489.0,72.0 490.1,74.7 491.2,72.2 492.3,67.7 493.4,63.6 494.4,65.3 495.5,69.3 496.6,70.5 497.7,79.1 498.8,84.4 499.9,87.7 501.0,82.4 502.0,96.3 503.1,96.4 504.2,96.5 505.3,86.6 506.4,77.0 507.5,75.1 508.6,63.0 509.6,49.9 510.7,43.2 511.8,44.7 512.9,40.1 514.0,32.7 515.1,35.4 516.2,40.8 517.2,40.3 518.3,45.7 519.4,87.9 520.5,89.3 521.6,71.8 522.7,86.4 523.8,84.5 524.8,90.8 525.9,98.4 527.0,109.5 528.1,107.9 529.2,103.3 530.3,92.6 531.4,98.9 532.5,106.8 533.5,96.9 534.6,92.3 535.7,87.5 536.8,80.1 537.9,71.3 539.0,75.0 540.1,84.2 541.1,105.1 542.2,96.4 543.3,94.3 544.4,92.8 545.5,106.9 546.6,120.4 547.7,129.2 548.7,123.5 549.8,127.2 550.9,126.7 552.0,130.6 553.1,112.0 554.2,111.5 555.3,125.4 556.3,130.6 557.4,138.4 558.5,158.9 559.6,157.9 560.7,163.3 561.8,169.6 562.9,166.6 563.9,180.9 565.0,181.1 566.1,202.6 567.2,206.5 568.3,195.4 569.4,196.5 570.5,191.6 571.5,194.1 572.6,174.2 573.7,176.6 574.8,178.1 575.9,177.2 577.0,198.5 578.1,193.5 579.2,168.5 580.2,166.9 581.3,170.7 582.4,183.4 583.5,183.6 584.6,179.6 585.7,177.1 586.8,164.3 587.8,169.8 588.9,180.6 590.0,180.3 591.1,180.1 592.2,184.3 593.3,183.0 594.4,192.5 595.4,193.5 596.5,191.9 597.6,188.7 598.7,188.0 599.8,188.4 600.9,185.2 602.0,190.1 603.0,192.8 604.1,189.8 605.2,184.0 606.3,191.4 607.4,189.7 608.5,189.3 609.6,191.9 610.6,187.9 611.7,190.6 612.8,187.4 613.9,181.5 615.0,180.1 616.1,174.9 617.2,163.6 618.3,164.1 619.3,171.8 620.4,180.6 621.5,178.6 622.6,177.0 623.7,177.4 624.8,177.3 625.9,172.2 626.9,159.0 628.0,153.0 629.1,158.0 630.2,157.5 631.3,159.0 632.4,169.5 633.5,168.9 634.5,187.3 635.6,181.6 636.7,183.7 637.8,182.7 638.9,183.4 640.0,191.6 641.1,190.4 642.1,186.4 643.2,182.8 644.3,193.3 645.4,211.6 646.5,211.5 647.6,228.7 648.7,234.1 649.7,230.2 650.8,238.0 651.9,262.9 653.0,287.7 654.1,265.5 655.2,269.0 656.3,260.6 657.4,265.8 658.4,270.6 659.5,277.1 660.6,282.2 661.7,270.5 662.8,266.5 663.9,272.8 665.0,275.1 666.0,274.3 667.1,278.2 668.2,282.1 669.3,276.5 670.4,272.8 671.5,276.2 672.6,282.1 673.6,295.2 674.7,285.9 675.8,272.2 676.9,275.1 678.0,292.6 679.1,279.4 680.2,280.2 681.2,274.2 682.3,275.9 683.4,255.5 684.5,260.8 685.6,273.5 686.7,277.9 687.8,282.3 688.8,270.8 689.9,265.2 691.0,263.4 692.1,267.0 693.2,261.7 694.3,263.3 695.4,259.8 696.5,250.9 697.5,250.7 698.6,256.1 699.7,266.4 700.8,263.6 701.9,263.4 703.0,271.3 704.1,273.3 705.1,263.9 706.2,261.4 707.3,262.9 708.4,271.5 709.5,283.1 710.6,280.9 711.7,282.1 712.7,279.9 713.8,274.0 714.9,273.2 716.0,279.3 717.1,279.5 718.2,277.8 719.3,277.4 720.3,267.1 721.4,274.0 722.5,262.3 723.6,262.8 724.7,256.5 725.8,253.7 726.9,260.0 727.9,262.8 729.0,245.8 730.1,250.2 731.2,244.6 732.3,246.3 733.4,235.8 734.5,242.6 735.5,247.3 736.6,240.8 737.7,238.9 738.8,231.2 739.9,230.9 741.0,233.9 742.1,234.2 743.2,231.0 744.2,236.9 745.3,239.7 746.4,241.3 747.5,238.5 748.6,230.4 749.7,230.4 750.8,228.7 751.8,228.5 752.9,219.8 754.0,214.8 755.1,218.1 756.2,224.7 757.3,222.2 758.4,220.4 759.4,219.8 760.5,218.8 761.6,218.9 762.7,225.1 763.8,216.9 764.9,227.2 766.0,231.1 767.0,230.2 768.1,236.6 769.2,237.0 770.3,234.4 771.4,232.5 772.5,236.4 773.6,242.6 774.6,238.5 775.7,234.8 776.8,235.6 777.9,241.5 779.0,251.6 780.1,250.2 781.2,251.1 782.3,249.6 783.3,252.8 784.4,265.0 785.5,281.3 786.6,290.3 787.7,297.8 788.8,304.5 789.9,305.7 790.9,294.7 792.0,294.3 793.1,301.5 794.2,301.3 795.3,293.6 796.4,293.2 797.5,292.0 798.5,292.1 799.6,277.8 800.7,284.8 801.8,286.4 802.9,290.3 804.0,297.8 805.1,293.3 806.1,291.0 807.2,291.2 808.3,296.7 809.4,297.1 810.5,302.2 811.6,309.4 812.7,307.7 813.7,308.4 814.8,311.4 815.9,309.7 817.0,314.9 818.1,307.0 819.2,302.2 820.3,297.1 821.4,294.9 822.4,296.9 823.5,293.7 824.6,292.0 825.7,301.7 826.8,296.1 827.9,289.8 829.0,291.0 830.0,291.8 831.1,296.7 832.2,297.8 833.3,288.6 834.4,290.9 835.5,296.4 836.6,292.0 837.6,288.8 838.7,288.2 839.8,285.8 840.9,281.5 842.0,283.1 843.1,287.2 844.2,291.2 845.2,290.4 846.3,289.1 847.4,287.7 848.5,293.0 849.6,290.7 850.7,288.4 851.8,297.4 852.8,295.6 853.9,295.6 855.0,297.5 856.1,292.2 857.2,291.6 858.3,289.0 859.4,289.3 860.5,287.8 861.5,288.2 862.6,287.0 863.7,291.8 864.8,292.6 865.9,293.8 867.0,293.7 868.1,296.1 869.1,295.8 870.2,296.5 871.3,290.2 872.4,289.4 873.5,272.9 874.6,255.8 875.7,234.5 876.7,235.0 877.8,235.5 878.9,225.6 880.0,221.2" fill="none" stroke="#58a6ff" stroke-width="1.5" stroke-dasharray="5 4"/>
  <text x="72" y="36" fill="#2ea043" font-size="11" font-family="monospace">Strategy +61.54%</text>
  <text x="72" y="52" fill="#58a6ff" font-size="11" font-family="monospace">Buy &amp; Hold +36.53%</text>
  <line x1="60" y1="342" x2="880" y2="342" stroke="#30363d"/>
  <text x="60" y="356" fill="#8b949e" font-size="12" font-family="monospace">Drawdown (max -15.8%)</text>
  <polygon points="60.0,22.0 61.1,22.0 62.2,22.0 63.3,22.0 64.3,22.0 65.4,22.0 66.5,22.0 67.6,22.0 68.7,22.0 69.8,22.0 70.9,22.0 71.9,22.0 73.0,22.0 74.1,22.0 75.2,24.0 76.3,26.9 77.4,51.3 78.5,51.3 79.5,58.1 80.6,22.0 81.7,27.5 82.8,31.1 83.9,34.9 85.0,30.3 86.1,28.0 87.2,29.8 88.2,31.1 89.3,22.4 90.4,24.5 91.5,27.1 92.6,41.3 93.7,43.9 94.8,43.9 95.8,43.9 96.9,43.9 98.0,43.9 99.1,43.9 100.2,43.9 101.3,46.1 102.4,57.7 103.4,61.0 104.5,61.0 105.6,61.0 106.7,61.0 107.8,63.3 108.9,48.9 110.0,39.0 111.0,22.3 112.1,27.9 113.2,23.3 114.3,26.7 115.4,28.4 116.5,25.5 117.6,40.0 118.6,45.9 119.7,45.9 120.8,45.9 121.9,52.0 123.0,52.0 124.1,52.0 125.2,52.0 126.3,52.0 127.3,54.4 128.4,65.4 129.5,73.0 130.6,83.2 131.7,83.2 132.8,83.2 133.9,83.2 134.9,83.2 136.0,81.0 137.1,71.7 138.2,67.8 139.3,47.8 140.4,30.5 141.5,25.8 142.5,43.1 143.6,42.9 144.7,53.9 145.8,33.6 146.9,35.6 148.0,43.6 149.1,34.0 150.1,32.7 151.2,25.7 152.3,24.8 153.4,24.7 154.5,31.8 155.6,41.5 156.7,42.6 157.7,52.2 158.8,52.2 159.9,52.2 161.0,52.2 162.1,56.5 163.2,52.6 164.3,60.8 165.4,72.2 166.4,72.2 167.5,72.2 168.6,96.4 169.7,88.1 170.8,83.1 171.9,86.8 173.0,103.9 174.0,103.9 175.1,103.9 176.2,108.3 177.3,96.5 178.4,98.9 179.5,88.0 180.6,64.2 181.6,64.6 182.7,80.9 183.8,103.9 184.9,103.9 186.0,103.9 187.1,103.9 188.2,103.9 189.2,103.9 190.3,103.9 191.4,108.3 192.5,109.5 193.6,109.5 194.7,109.5 195.8,109.5 196.8,109.5 197.9,109.5 199.0,109.5 200.1,109.5 201.2,99.5 202.3,99.6 203.4,100.3 204.5,78.3 205.5,109.7 206.6,114.2 207.7,114.2 208.8,114.2 209.9,114.2 211.0,114.2 212.1,114.2 213.1,114.2 214.2,113.7 215.3,99.5 216.4,82.0 217.5,78.6 218.6,62.2 219.7,78.6 220.7,79.8 221.8,60.6 222.9,78.3 224.0,82.1 225.1,86.1 226.2,83.0 227.3,84.7 228.3,84.7 229.4,84.7 230.5,84.7 231.6,84.7 232.7,86.5 233.8,97.8 234.9,97.8 235.9,97.8 237.0,97.8 238.1,97.8 239.2,97.8 240.3,97.8 241.4,97.8 242.5,97.8 243.5,97.8 244.6,97.8 245.7,97.8 246.8,97.8 247.9,97.8 249.0,97.8 250.1,97.8 251.2,97.8 252.2,97.8 253.3,97.8 254.4,97.8 255.5,97.8 256.6,97.8 257.7,97.8 258.8,97.8 259.8,97.8 260.9,97.8 262.0,97.8 263.1,97.8 264.2,97.8 265.3,97.8 266.4,97.8 267.4,97.8 268.5,97.8 269.6,97.8 270.7,97.8 271.8,97.8 272.9,97.8 274.0,97.8 275.0,97.8 276.1,97.8 277.2,97.8 278.3,97.8 279.4,97.8 280.5,97.8 281.6,97.8 282.6,97.8 283.7,97.8 284.8,97.8 285.9,97.8 287.0,97.8 288.1,97.8 289.2,97.8 290.3,97.8 291.3,97.8 292.4,100.9 293.5,93.9 294.6,103.9 295.7,103.9 296.8,103.9 297.9,103.9 298.9,103.9 300.0,103.9 301.1,103.9 302.2,103.9 303.3,103.9 304.4,103.9 305.5,103.9 306.5,103.9 307.6,103.9 308.7,103.9 309.8,103.9 310.9,103.9 312.0,103.9 313.1,103.9 314.1,109.3 315.2,105.1 316.3,96.2 317.4,106.2 318.5,106.2 319.6,106.2 320.7,106.2 321.7,107.1 322.8,93.9 323.9,87.9 325.0,52.7 326.1,57.1 327.2,55.8 328.3,40.8 329.4,42.6 330.4,50.3 331.5,42.9 332.6,44.3 333.7,51.5 334.8,38.2 335.9,33.8 337.0,40.4 338.0,46.3 339.1,49.7 340.2,49.7 341.3,49.7 342.4,29.3 343.5,27.1 344.6,24.1 345.6,24.2 346.7,22.0 347.8,34.4 348.9,29.5 350.0,38.7 351.1,44.8 352.2,44.8 353.2,44.8 354.3,37.5 355.4,47.8 356.5,47.8 357.6,34.6 358.7,27.6 359.8,43.6 360.8,39.0 361.9,48.1 363.0,38.6 364.1,30.6 365.2,46.0 366.3,46.0 367.4,46.0 368.5,46.0 369.5,46.0 370.6,46.0 371.7,46.0 372.8,46.0 373.9,46.0 375.0,46.0 376.1,46.0 377.1,46.0 378.2,44.5 379.3,26.0 380.4,24.8 381.5,30.7 382.6,49.1 383.7,49.1 384.7,49.1 385.8,49.1 386.9,49.1 388.0,53.1 389.1,53.1 390.2,53.1 391.3,53.1 392.3,53.1 393.4,53.1 394.5,53.1 395.6,53.1 396.7,53.1 397.8,53.1 398.9,56.0 399.9,52.8 401.0,54.6 402.1,50.9 403.2,58.8 404.3,69.7 405.4,69.7 406.5,65.9 407.5,78.3 408.6,77.9 409.7,72.5 410.8,83.0 411.9,87.7 413.0,69.4 414.1,60.8 415.2,37.2 416.2,39.1 417.3,30.4 418.4,30.9 419.5,48.0 420.6,45.4 421.7,48.0 422.8,42.0 423.8,50.0 424.9,50.0 426.0,50.0 427.1,50.0 428.2,50.0 429.3,50.0 430.4,50.0 431.4,50.0 432.5,50.0 433.6,50.0 434.7,61.0 435.8,61.0 436.9,61.0 438.0,61.0 439.0,61.0 440.1,61.0 441.2,61.0 442.3,61.0 443.4,61.0 444.5,61.0 445.6,61.0 446.6,60.6 447.7,58.5 448.8,52.7 449.9,34.0 451.0,46.8 452.1,44.7 453.2,35.4 454.3,58.6 455.3,58.6 456.4,58.6 457.5,58.6 458.6,58.6 459.7,58.6 460.8,58.6 461.9,58.6 462.9,58.6 464.0,65.6 465.1,65.6 466.2,65.6 467.3,65.6 468.4,65.6 469.5,65.6 470.5,65.6 471.6,65.6 472.7,65.6 473.8,65.6 474.9,65.6 476.0,65.6 477.1,65.6 478.1,65.6 479.2,65.6 480.3,65.6 481.4,65.6 482.5,65.6 483.6,65.6 484.7,65.6 485.7,54.7 486.8,53.6 487.9,54.5 489.0,53.5 490.1,57.3 491.2,49.3 492.3,58.1 493.4,44.9 494.4,55.7 495.5,60.1 496.6,60.1 497.7,60.1 498.8,60.1 499.9,60.1 501.0,60.1 502.0,60.1 503.1,60.1 504.2,60.1 505.3,60.1 506.4,60.1 507.5,56.8 508.6,31.5 509.6,25.8 510.7,26.4 511.8,24.8 512.9,31.2 514.0,27.3 515.1,43.7 516.2,39.1 517.2,53.1 518.3,53.1 519.4,53.1 520.5,53.1 521.6,53.1 522.7,53.1 523.8,53.1 524.8,53.1 525.9,53.1 527.0,53.1 528.1,53.1 529.2,53.1 530.3,53.1 531.4,53.1 532.5,53.1 533.5,53.1 534.6,53.1 535.7,53.1 536.8,53.1 537.9,57.9 539.0,63.9 540.1,67.5 541.1,67.5 542.2,67.5 543.3,67.5 544.4,67.5 545.5,67.5 546.6,67.5 547.7,67.5 548.7,67.5 549.8,67.5 550.9,67.5 552.0,67.5 553.1,67.5 554.2,67.5 555.3,67.5 556.3,67.5 557.4,67.5 558.5,67.5 559.6,67.5 560.7,67.5 561.8,67.5 562.9,67.5 563.9,67.5 565.0,67.5 566.1,67.5 567.2,67.5 568.3,67.5 569.4,67.5 570.5,67.5 571.5,67.5 572.6,67.5 573.7,67.5 574.8,67.5 575.9,67.5 577.0,67.5 578.1,67.5 579.2,67.5 580.2,67.5 581.3,67.5 582.4,67.5 583.5,67.5 584.6,67.5 585.7,67.5 586.8,67.5 587.8,67.5 588.9,67.5 590.0,67.5 591.1,67.5 592.2,67.5 593.3,67.5 594.4,67.5 595.4,67.5 596.5,67.5 597.6,67.5 598.7,67.5 599.8,67.5 600.9,67.5 602.0,67.5 603.0,67.5 604.1,67.5 605.2,67.5 606.3,67.5 607.4,67.5 608.5,67.5 609.6,67.5 610.6,67.5 611.7,67.5 612.8,67.5 613.9,67.5 615.0,57.9 616.1,49.5 617.2,39.2 618.3,42.7 619.3,58.9 620.4,68.6 621.5,68.6 622.6,68.6 623.7,68.6 624.8,68.6 625.9,68.6 626.9,57.2 628.0,54.8 629.1,64.2 630.2,68.3 631.3,69.2 632.4,80.6 633.5,80.6 634.5,80.6 635.6,80.6 636.7,80.6 637.8,80.6 638.9,80.6 640.0,80.6 641.1,80.6 642.1,80.6 643.2,80.6 644.3,80.6 645.4,80.6 646.5,80.6 647.6,80.6 648.7,80.6 649.7,80.6 650.8,80.6 651.9,80.6 653.0,80.6 654.1,80.6 655.2,80.6 656.3,80.6 657.4,80.6 658.4,80.6 659.5,80.6 660.6,80.6 661.7,80.6 662.8,80.6 663.9,80.6 665.0,80.6 666.0,80.6 667.1,80.6 668.2,80.6 669.3,80.6 670.4,80.6 671.5,80.6 672.6,80.6 673.6,80.6 674.7,80.6 675.8,80.6 676.9,80.6 678.0,80.6 679.1,80.6 680.2,80.6 681.2,80.6 682.3,80.6 683.4,72.1 684.5,96.5 685.6,120.3 686.7,120.3 687.8,120.3 688.8,120.3 689.9,120.3 691.0,120.3 692.1,120.3 693.2,122.0 694.3,120.7 695.4,105.6 696.5,89.5 697.5,90.2 698.6,120.2 699.7,120.2 700.8,120.2 701.9,120.2 703.0,120.2 704.1,120.2 705.1,120.2 706.2,120.2 707.3,120.2 708.4,120.2 709.5,120.2 710.6,120.2 711.7,120.2 712.7,120.2 713.8,120.2 714.9,120.2 716.0,120.2 717.1,120.2 718.2,120.2 719.3,120.2 720.3,120.2 721.4,96.7 722.5,104.0 723.6,93.8 724.7,84.5 725.8,81.7 726.9,103.3 727.9,96.9 729.0,75.8 730.1,82.6 731.2,81.5 732.3,53.1 733.4,62.7 734.5,67.7 735.5,84.1 736.6,73.1 737.7,66.5 738.8,66.1 739.9,68.3 741.0,70.6 742.1,68.4 743.2,57.5 744.2,81.3 745.3,81.3 746.4,81.3 747.5,81.3 748.6,81.3 749.7,76.9 750.8,75.3 751.8,66.3 752.9,54.6 754.0,55.1 755.1,68.3 756.2,65.5 757.3,64.0 758.4,58.9 759.4,58.2 760.5,62.6 761.6,68.8 762.7,68.8 763.8,74.3 764.9,76.8 766.0,76.8 767.0,76.8 768.1,76.8 769.2,76.8 770.3,76.8 771.4,76.8 772.5,76.8 773.6,76.8 774.6,76.8 775.7,76.8 776.8,76.8 777.9,76.8 779.0,76.8 780.1,76.8 781.2,76.8 782.3,76.8 783.3,76.8 784.4,76.8 785.5,76.8 786.6,76.8 787.7,76.8 788.8,76.8 789.9,76.8 790.9,76.8 792.0,76.8 793.1,76.8 794.2,76.8 795.3,76.8 796.4,76.8 797.5,76.8 798.5,76.8 799.6,76.8 800.7,76.8 801.8,76.8 802.9,76.8 804.0,76.8 805.1,76.8 806.1,76.8 807.2,76.8 808.3,76.8 809.4,76.8 810.5,76.8 811.6,76.8 812.7,76.8 813.7,76.8 814.8,76.8 815.9,76.8 817.0,76.8 818.1,76.8 819.2,76.8 820.3,76.8 821.4,76.8 822.4,76.8 823.5,76.8 824.6,76.8 825.7,76.8 826.8,76.8 827.9,74.9 829.0,71.3 830.0,72.8 831.1,77.1 832.2,77.1 833.3,71.5 834.4,75.6 835.5,88.1 836.6,88.1 837.6,88.8 838.7,88.1 839.8,76.9 840.9,79.3 842.0,82.1 843.1,89.9 844.2,97.9 845.2,97.9 846.3,97.9 847.4,103.0 848.5,103.0 849.6,103.0 850.7,103.0 851.8,106.7 852.8,106.7 853.9,106.7 855.0,106.7 856.1,106.7 857.2,100.3 858.3,102.0 859.4,100.2 860.5,97.7 861.5,96.0 862.6,102.5 863.7,106.2 864.8,106.2 865.9,106.2 867.0,106.2 868.1,106.2 869.1,106.2 870.2,106.2 871.3,106.2 872.4,104.8 873.5,59.2 874.6,28.3 875.7,34.3 876.7,38.9 877.8,35.1 878.9,28.6 880.0,26.7 880.0,364.0 60.0,364.0" fill="#f85149" opacity="0.35"/>
  <line x1="60" y1="364" x2="880" y2="364" stroke="#30363d"/>
  <line x1="60" y1="464" x2="880" y2="464" stroke="#30363d"/>
</svg>